<svg xmlns="http://www.w3.org/2000/svg" xmlns:xlink="http://www.w3.org/1999/xlink" version="1.1" x="0px" y="0px" viewBox="0 0 100 100" style="enable-background:new 0 0 100 100;" xml:space="preserve"><path d="M76.7182617,72.1230469c0.894043,0.515625,1.8857422,0.7792969,2.890625,0.7792969  c0.5039062,0,1.0107422-0.0664062,1.5102539-0.2001953C82.6157227,72.3012695,83.8666992,71.3417969,84.6411133,70  c1.5986328-2.7695312,0.6464844-6.3232422-2.1230469-7.9228516c-2.4736328-1.4287109-5.5687256-0.8161011-7.3424683,1.3031006  l-5.4293213-3.1345825l5.9358521-3.1333618c0.4882812-0.2578125,0.675293-0.862793,0.4174805-1.3510742  c-0.2578125-0.487793-0.8623047-0.675293-1.3510742-0.4174805l-7.0484009,3.7205811l-5.0324707-2.9055176l4.923645-2.5987549  c0.4882812-0.2578125,0.675293-0.862793,0.4174805-1.3510742c-0.2573242-0.487793-0.8623047-0.6748047-1.3510742-0.4174805  L60.62146,54.977417L52.0003052,50l10.9060669-6.2966309l7.8343506,4.135498  c0.1489258,0.0786133,0.3085938,0.1157227,0.4658203,0.1157227c0.3588867,0,0.7060547-0.1938477,0.8852539-0.5332031  c0.2578125-0.4882812,0.0708008-1.0932617-0.4174805-1.3510742l-6.7218018-3.5482788l6.2116089-3.5863037l7.0487671,3.72052  c0.1489258,0.0786133,0.3085938,0.1157227,0.4658203,0.1157227c0.3588867,0,0.7060547-0.1938477,0.8852539-0.5332031  c0.2578125-0.4882812,0.0708008-1.0932617-0.4174805-1.3510742l-5.9361572-3.1333008l5.7218018-3.3035278l3.5561523,1.8772583  c0.1489258,0.0786133,0.3085938,0.1157227,0.4658203,0.1157227c0.3588867,0,0.7060547-0.1938477,0.8852539-0.5332031  c0.2578125-0.4882812,0.0708008-1.0932617-0.4174805-1.3510742l-2.4436035-1.2900391l3.2966309-1.9033203  C84.753418,31.0898438,84.9169922,30.4785156,84.6411133,30c-0.2768555-0.4785156-0.8896484-0.6435547-1.3662109-0.3662109  l-3.2967529,1.9033813l0.1053467-2.7612915c0.0205078-0.5517578-0.409668-1.0166016-0.9614258-1.0375977  c-0.5532227-0.0097656-1.0166016,0.409668-1.0375977,0.9614258l-0.152832,4.019043l-5.7217407,3.3034058l0.2549438-6.7072144  c0.0205078-0.5522461-0.409668-1.0166016-0.9614258-1.0375977c-0.5620117-0.0268555-1.0166016,0.4101562-1.0375977,0.9614258  l-0.3023071,7.9649048l-6.2114258,3.5861816l0.2886353-7.59552c0.0205078-0.5522461-0.409668-1.0166016-0.9614258-1.0375977  c-0.5766602-0.0288086-1.0166016,0.4101562-1.0375977,0.9614258l-0.3359985,8.8531494L51,48.2677612v-9.9542847l5.777832-3.6347656  c0.4672852-0.2944336,0.6079102-0.9116211,0.3139648-1.3793945c-0.2944336-0.4667969-0.9121094-0.6074219-1.3793945-0.3139648  L51,35.9500122v-5.8103638l6.746582-4.2441406c0.4672852-0.2944336,0.6079102-0.9116211,0.3139648-1.3793945  c-0.2954102-0.4667969-0.9111328-0.6074219-1.3793945-0.3139648L51,27.7761841v-6.2689819  c2.7223511-0.4759521,4.7998047-2.850769,4.7998047-5.7073975C55.7998047,12.6015625,53.1982422,10,50,10  s-5.7998047,2.6015625-5.7998047,5.7998047c0,2.8566284,2.0774536,5.2314453,4.7998047,5.7073975v6.2689819l-5.6811523-3.5740356  c-0.4677734-0.293457-1.0844727-0.152832-1.3793945,0.3139648c-0.2939453,0.4677734-0.1533203,1.0849609,0.3139648,1.3793945  L49,30.1396484v5.8103638l-4.7124023-2.9646606c-0.4677734-0.293457-1.0849609-0.152832-1.3793945,0.3139648  c-0.2939453,0.4677734-0.1533203,1.0849609,0.3139648,1.3793945L49,38.3134766v9.9542847l-10.9057007-6.2964478  l-0.3359985-8.8531494c-0.0209961-0.5517578-0.4633789-0.9863281-1.0375977-0.9614258  c-0.5517578,0.0209961-0.9819336,0.4853516-0.9614258,1.0375977l0.2886353,7.59552l-6.2114258-3.5861816l-0.3023071-7.9649048  c-0.0209961-0.5517578-0.4570312-0.9838867-1.0375977-0.9614258c-0.5517578,0.0209961-0.9819336,0.4853516-0.9614258,1.0375977  l0.2549438,6.7072144L22.0683594,32.71875l-0.152832-4.019043c-0.0209961-0.5517578-0.4658203-0.9716797-1.0375977-0.9614258  c-0.5517578,0.0209961-0.9819336,0.4858398-0.9614258,1.0375977l0.1053467,2.7612915l-3.2967529-1.9033813  C16.2451172,29.3564453,15.6352539,29.5214844,15.3588867,30c-0.2758789,0.4785156-0.1123047,1.0898438,0.3662109,1.3662109  l3.2965698,1.9032593l-2.4440308,1.2901001c-0.4882812,0.2578125-0.675293,0.862793-0.4174805,1.3510742  c0.1791992,0.3393555,0.5258789,0.5332031,0.8852539,0.5332031c0.1572266,0,0.3168945-0.0371094,0.4658203-0.1157227  l3.5566406-1.8772583l5.7218018,3.3035278l-5.9361572,3.1333008c-0.4882812,0.2578125-0.675293,0.862793-0.4174805,1.3510742  c0.1791992,0.3393555,0.5258789,0.5332031,0.8852539,0.5332031c0.1572266,0,0.3168945-0.0371094,0.4658203-0.1157227  l7.0487671-3.72052l6.2116089,3.5863037l-6.7218018,3.5482788c-0.4882812,0.2578125-0.675293,0.862793-0.4174805,1.3510742  c0.1791992,0.3393555,0.5258789,0.5332031,0.8852539,0.5332031c0.1572266,0,0.3168945-0.0371094,0.4658203-0.1157227  l7.8343506-4.135498L47.9996948,50L39.37854,54.977417l-6.0362549-3.1859131  c-0.4892578-0.2587891-1.09375-0.0708008-1.3510742,0.4174805c-0.2578125,0.4882812-0.0708008,1.0932617,0.4174805,1.3510742  l4.923645,2.5987549l-5.0324707,2.9055176L25.2514648,55.34375c-0.4897461-0.2573242-1.09375-0.0703125-1.3510742,0.4174805  c-0.2578125,0.4882812-0.0708008,1.0932617,0.4174805,1.3510742l5.9358521,3.1333618l-5.4296265,3.1348267  c-1.7734375-2.1187134-4.8689575-2.7307739-7.3421631-1.3033447C14.7124023,63.6767578,13.7602539,67.2304688,15.3588867,70  c0.7744141,1.3417969,2.0253906,2.3012695,3.5219727,2.7021484c0.4995117,0.1337891,1.0063477,0.2001953,1.5102539,0.2001953  c1.0048828,0,1.9970703-0.2636719,2.890625-0.7792969c2.4732056-1.4282837,3.4914551-4.4146118,2.5426025-7.0103149  l5.4296265-3.1347656l-0.2549438,6.7070923c-0.0205078,0.5522461,0.409668,1.0166016,0.9614258,1.0375977  c0.0131836,0.0004883,0.0258789,0.0004883,0.0385742,0.0004883c0.5351562,0,0.9785156-0.4233398,0.9990234-0.9619141  l0.3023071-7.9647827l5.0322266-2.9053345l-0.2114868,5.5629883c-0.0205078,0.5522461,0.409668,1.0166016,0.9614258,1.0375977  c0.0131836,0.0004883,0.0258789,0.0004883,0.0385742,0.0004883c0.5351562,0,0.9785156-0.4233398,0.9990234-0.9619141  l0.2588501-6.8206787L49,51.7322388v12.5929565l-7.4990234,4.7177734c-0.4672852,0.2939453-0.6079102,0.9111328-0.3134766,1.3789062  c0.2939453,0.4672852,0.9116211,0.609375,1.3789062,0.3134766L49,66.6881714v7.1721802l-6.746582,4.2441406  c-0.4672852,0.2944336-0.6079102,0.9116211-0.3139648,1.3793945c0.2949219,0.4672852,0.9116211,0.6083984,1.3793945,0.3139648  L49,76.2238159v6.6062622l-3.4042969,2.1416016c-0.4672852,0.2944336-0.6079102,0.9116211-0.3139648,1.3793945  c0.2954102,0.4672852,0.9111328,0.6079102,1.3793945,0.3139648L49,85.1936035V89c0,0.5522461,0.4477539,1,1,1s1-0.4477539,1-1  v-3.8063965l2.3388672,1.4714355c0.1655273,0.1040039,0.3496094,0.1533203,0.5317383,0.1533203  c0.3325195,0,0.6572266-0.1655273,0.8476562-0.4672852c0.2939453-0.4677734,0.1533203-1.0849609-0.3139648-1.3793945L51,82.8300781  v-6.6062622l5.6811523,3.5740356c0.1655273,0.1040039,0.3496094,0.1533203,0.5317383,0.1533203  c0.3325195,0,0.6572266-0.1655273,0.8476562-0.4672852c0.2939453-0.4677734,0.1533203-1.0849609-0.3139648-1.3793945L51,73.8603516  v-7.1721802l6.4335938,4.0471802c0.1655273,0.1044922,0.3496094,0.1538086,0.5317383,0.1538086  c0.3325195,0,0.6572266-0.1655273,0.847168-0.4672852c0.2944336-0.4677734,0.1538086-1.0849609-0.3134766-1.3789062L51,64.3251953  V51.7322388l8.6210327,4.977356l0.2588501,6.8206787c0.0205078,0.5390625,0.4638672,0.9619141,0.9990234,0.9619141  c0.0126953,0,0.0253906,0,0.0385742-0.0004883c0.5517578-0.0209961,0.9819336-0.4853516,0.9614258-1.0375977l-0.2114868-5.5629883  l5.0322266,2.9053345l0.3023071,7.9647827c0.0205078,0.5390625,0.4638672,0.9619141,0.9990234,0.9619141  c0.0126953,0,0.0253906,0,0.0385742-0.0004883c0.5517578-0.0209961,0.9819336-0.4853516,0.9614258-1.0375977l-0.2549438-6.7070923  l5.4293213,3.1345825C73.2268677,67.708313,74.2449951,70.6947632,76.7182617,72.1230469z M81.5180664,63.8095703  C83.3325195,64.8569336,83.956543,67.1855469,82.9086914,69c-1.046875,1.8139648-3.3764648,2.4384766-5.1904297,1.390625  c-1.8139648-1.0470581-2.4373779-3.3746948-1.3917847-5.1889038c0.0003052-0.0005493,0.0008545-0.0009766,0.0011597-0.0015259  c0.0002441-0.0004272,0.0001831-0.0008545,0.0004272-0.0012817C77.3773804,63.3860474,79.7036133,62.7614746,81.5180664,63.8095703z   M46.2001953,15.7998047C46.2001953,13.7045898,47.9047852,12,50,12s3.7998047,1.7045898,3.7998047,3.7998047  S52.0952148,19.5996094,50,19.5996094S46.2001953,17.8950195,46.2001953,15.7998047z M22.2817383,70.390625  C20.465332,71.4384766,18.1376953,70.8139648,17.0913086,69c-1.0478516-1.8144531-0.4238281-4.1430664,1.390625-5.1904297  c1.8144531-1.0483398,4.1430664-0.4233398,5.1904297,1.390625C24.7197266,67.0146484,24.0961914,69.3432617,22.2817383,70.390625z"/></svg>