<svg xmlns="http://www.w3.org/2000/svg" xmlns:xlink="http://www.w3.org/1999/xlink" version="1.1" x="0px" y="0px" viewBox="0 0 100 125" style="enable-background:new 0 0 100 100;" xml:space="preserve"><path d="M25.702,50.46c0,13.397,10.899,24.296,24.296,24.296c13.397,0,24.297-10.899,24.297-24.296S63.396,26.164,49.998,26.164  C36.602,26.164,25.702,37.063,25.702,50.46z M49.998,28.164c12.295,0,22.297,10.002,22.297,22.296  c0,12.294-10.002,22.296-22.297,22.296c-12.294,0-22.296-10.002-22.296-22.296C27.702,38.166,37.704,28.164,49.998,28.164z"/><path d="M50.998,19.306v-8.276c0-0.552-0.447-1-1-1s-1,0.448-1,1v8.276c0,0.552,0.447,1,1,1S50.998,19.858,50.998,19.306z"/><path d="M62.669,23c0.384,0,0.749-0.221,0.914-0.594l3.366-7.561c0.225-0.504-0.002-1.096-0.506-1.32  c-0.507-0.224-1.097,0.003-1.32,0.507l-3.366,7.561c-0.225,0.504,0.002,1.096,0.507,1.32C62.396,22.971,62.533,23,62.669,23z"/><path d="M78.632,23.333l-6.15,5.538c-0.41,0.37-0.443,1.002-0.074,1.412c0.197,0.22,0.47,0.331,0.743,0.331  c0.238,0,0.478-0.085,0.669-0.257l6.15-5.538c0.41-0.37,0.443-1.002,0.074-1.412C79.674,22.995,79.042,22.962,78.632,23.333z"/><path d="M88.45,37.966c-0.172-0.525-0.735-0.812-1.26-0.642l-7.871,2.558c-0.525,0.171-0.813,0.735-0.643,1.26  c0.138,0.422,0.529,0.691,0.951,0.691c0.103,0,0.206-0.016,0.309-0.049l7.871-2.558C88.333,39.056,88.621,38.492,88.45,37.966z"/><path d="M89.317,53.587l-8.23-0.865c-0.549-0.056-1.041,0.341-1.099,0.89c-0.059,0.549,0.341,1.042,0.89,1.099l8.23,0.865  c0.035,0.003,0.07,0.005,0.105,0.005c0.506,0,0.939-0.382,0.993-0.896C90.266,54.137,89.866,53.645,89.317,53.587z"/><path d="M76.112,65.538c-0.276,0.479-0.112,1.09,0.366,1.366l7.168,4.138c0.157,0.091,0.329,0.134,0.499,0.134  c0.346,0,0.682-0.179,0.867-0.5c0.276-0.479,0.112-1.09-0.366-1.366l-7.168-4.138C77,64.896,76.389,65.059,76.112,65.538z"/><path d="M67.723,74.855c-0.446,0.325-0.546,0.95-0.221,1.397l4.864,6.696c0.195,0.269,0.5,0.412,0.81,0.412  c0.203,0,0.409-0.062,0.587-0.191c0.446-0.325,0.546-0.95,0.221-1.397l-4.864-6.696C68.796,74.631,68.172,74.53,67.723,74.855z"/><path d="M56.268,79.956c-0.54,0.115-0.885,0.646-0.771,1.186l1.721,8.096c0.101,0.47,0.516,0.792,0.978,0.792  c0.068,0,0.139-0.007,0.209-0.022c0.54-0.115,0.885-0.646,0.771-1.186l-1.721-8.096C57.339,80.186,56.815,79.837,56.268,79.956z"/><path d="M42.542,80.726l-1.721,8.096c-0.114,0.541,0.23,1.071,0.771,1.186c0.07,0.015,0.14,0.022,0.209,0.022  c0.462,0,0.877-0.322,0.978-0.792l1.721-8.096c0.114-0.541-0.23-1.071-0.771-1.186C43.188,79.838,42.657,80.185,42.542,80.726z"/><path d="M30.878,75.077l-4.865,6.696c-0.325,0.447-0.226,1.072,0.221,1.397c0.178,0.129,0.383,0.191,0.587,0.191  c0.31,0,0.614-0.143,0.81-0.412l4.865-6.696c0.325-0.447,0.226-1.072-0.221-1.397C31.827,74.531,31.202,74.63,30.878,75.077z"/><path d="M14.984,70.676c0.186,0.321,0.521,0.5,0.867,0.5c0.17,0,0.342-0.043,0.499-0.134l7.167-4.138  c0.479-0.276,0.643-0.888,0.366-1.366c-0.277-0.479-0.89-0.642-1.366-0.366l-7.167,4.138C14.872,69.586,14.708,70.198,14.984,70.676  z"/><path d="M10.782,55.582c0.035,0,0.07-0.002,0.105-0.005l8.231-0.865c0.549-0.058,0.948-0.55,0.89-1.099  c-0.058-0.549-0.562-0.947-1.099-0.89l-8.231,0.865c-0.549,0.058-0.948,0.55-0.89,1.099C9.843,55.2,10.276,55.582,10.782,55.582z"/><path d="M11.546,37.966c-0.171,0.525,0.117,1.089,0.643,1.26l7.871,2.558c0.103,0.033,0.206,0.049,0.309,0.049  c0.422,0,0.813-0.269,0.951-0.691c0.171-0.525-0.117-1.089-0.643-1.26l-7.871-2.558C12.282,37.155,11.717,37.441,11.546,37.966z"/><path d="M21.364,23.333c-0.411-0.369-1.043-0.337-1.412,0.074c-0.369,0.41-0.336,1.042,0.074,1.412l6.15,5.538  c0.191,0.172,0.43,0.257,0.669,0.257c0.273,0,0.546-0.112,0.743-0.331c0.369-0.41,0.336-1.042-0.074-1.412L21.364,23.333z"/><path d="M37.327,23c0.136,0,0.273-0.028,0.405-0.087c0.505-0.225,0.731-0.816,0.507-1.32l-3.366-7.561  c-0.224-0.504-0.811-0.73-1.32-0.507c-0.504,0.225-0.73,0.816-0.506,1.32l3.366,7.561C36.578,22.778,36.943,23,37.327,23z"/></svg>