<svg xmlns="http://www.w3.org/2000/svg" xmlns:xlink="http://www.w3.org/1999/xlink" version="1.1" x="0px" y="0px" viewBox="0 0 100 125" style="enable-background:new 0 0 100 100;" xml:space="preserve"><path d="M38.8320312,58.6899414c-1.9248047-3.1206055-4.8349609-5.2021484-4.9677734-5.296875  c-0.3476562-0.2451172-0.8095703-0.2451172-1.1552734,0c-0.2011719,0.1420898-4.3740234,3.1342773-6.0029297,7.3603516  c-1.7353516-1.7739258-3.2382812-2.8466797-3.3154297-2.9013672c-0.3984375-0.2822266-0.9414062-0.2358398-1.2861328,0.1098633  c-7.0632935,7.0822144-7.2790527,18.4437256-0.6898804,25.8140259l-3.2192993,3.2279663  c-0.3896484,0.3911133-0.3896484,1.0239258,0.0019531,1.4140625c0.1953125,0.1948242,0.4501953,0.2919922,0.7060547,0.2919922  c0.2568359,0,0.5126953-0.0981445,0.7080078-0.2939453l3.2120361-3.2206421  c3.4491577,3.1241455,7.8560791,4.852478,12.5389404,4.852478c5.0087891,0,9.7167969-1.9555664,13.2832031-5.5322266  c0.3300781-0.3457031,0.3701172-0.8769531,0.0947266-1.2680664c-0.0546875-0.0771484-1.125-1.5834961-2.9052734-3.3198242  c4.2148438-1.6337891,7.1992188-5.8173828,7.3408203-6.0185547c0.2431641-0.3452148,0.2431641-0.8056641,0.0009766-1.1508789  c-0.0898438-0.1264648-2.0488281-2.8828125-5.0117188-4.8110352c1.7880859-4.1333008,0.9541016-9.1606445,0.9150391-9.387207  c-0.0712891-0.4169922-0.3974609-0.7436523-0.8144531-0.815918C48.0371094,57.7050781,42.9697266,56.8579102,38.8320312,58.6899414z   M51.0966797,73.3339844c-1.0751953,1.3271484-3.984375,4.5307617-7.4335938,5.1396484  c-0.3818359,0.0673828-0.6894531,0.3491211-0.7910156,0.7231445s0.0224609,0.7729492,0.3173828,1.0239258  C44.75,81.546875,45.9443359,82.925293,46.5839844,83.7211914c-3.0830078,2.7963867-7.0351562,4.3266602-11.2216797,4.3266602  c-4.1495361,0-8.0567627-1.5196533-11.1269531-4.2683105l3.5913086-3.6009521  c1.960022,1.617981,4.4077148,2.4918213,6.9262695,2.4918213c0.7070312,0,1.4189453-0.0688477,2.1279297-0.2089844  c0.5419922-0.1074219,0.8935547-0.6333008,0.7861328-1.175293c-0.1064453-0.5415039-0.6347656-0.8959961-1.1748047-0.7866211  c-2.5789185,0.5105591-5.2136841-0.1415405-7.2443237-1.7458496l6.2355957-6.2523804  c1.2918701,0.9706421,2.8537598,1.4992065,4.461853,1.4992065c0.4824219,0,0.9697266-0.0473633,1.4541016-0.1430664  c0.5419922-0.1074219,0.8935547-0.6333008,0.7861328-1.175293c-0.1064453-0.5415039-0.6367188-0.8964844-1.1748047-0.7866211  c-1.4380493,0.2859497-2.9039307-0.0286865-4.0950928-0.8302002l4.1673584-4.1785889  c0.3896484-0.3911133,0.3896484-1.0239258-0.0019531-1.4140625c-0.3916016-0.3896484-1.0244141-0.3886719-1.4140625,0.0019531  l-4.1782227,4.1893921c-0.8473511-1.2113037-1.1845093-2.7219238-0.8930664-4.2050171  c0.1064453-0.5419922-0.2470703-1.0673828-0.7880859-1.1743164c-0.5507812-0.1074219-1.0693359,0.2470703-1.1748047,0.7885742  c-0.4212036,2.1418457,0.1082153,4.3327026,1.4210815,6.02948l-6.2230225,6.2397461  c-1.651062-2.0488281-2.331543-4.7290649-1.81427-7.3517456c0.1064453-0.5419922-0.2460938-1.0678711-0.7880859-1.1743164  c-0.5410156-0.1103516-1.0683594,0.2451172-1.1748047,0.7875977c-0.645752,3.2789917,0.2441406,6.6281128,2.364624,9.1547852  l-3.5925293,3.6022339c-5.6199951-6.3721313-5.6008301-16.0214844,0.0921631-22.350769  c0.796875,0.6420898,2.1728516,1.8349609,3.4990234,3.3886719c0.2529297,0.2944336,0.6523438,0.4165039,1.0234375,0.3154297  c0.3740234-0.1020508,0.6552734-0.4101562,0.7216797-0.7915039c0.6064453-3.4428711,3.7978516-6.3637695,5.1240234-7.4477539  c0.9960938,0.8134766,3.0429688,2.6630859,4.2597656,4.9951172c0.1259766,0.2407227,0.3427734,0.4194336,0.6025391,0.496582  c0.2617188,0.0766602,0.5400391,0.0454102,0.7763672-0.0883789c2.8330078-1.6025391,6.6923828-1.4174805,8.2763672-1.2553711  c0.1621094,1.5717773,0.3457031,5.3808594-1.2109375,8.2270508c-0.2636719,0.480957-0.0898438,1.0844727,0.3886719,1.3525391  C48.5820312,70.4360352,50.3183594,72.3754883,51.0966797,73.3339844z"/><path d="M83.2949219,62.6640625c0.3984375,0.2822266,0.9414062,0.2363281,1.2861328-0.1098633  c7.0623169-7.0821533,7.2780762-18.4442139,0.6898804-25.8144531l3.2192993-3.2280273  c0.3896484-0.3911133,0.3896484-1.0239258-0.0019531-1.4140625c-0.390625-0.3901367-1.0234375-0.3881836-1.4140625,0.0019531  l-3.2120972,3.2207642c-3.4500122-3.1243286-7.8569336-4.8526001-12.539856-4.8526001  c-5.0078125,0.0004883-9.7158203,1.9555664-13.2529297,5.5014648c-0.3564453,0.3422852-0.4101562,0.8945312-0.125,1.2988281  c0.0546875,0.0776367,1.1259766,1.5834961,2.90625,3.3198242c-4.2158203,1.6337891-7.1992188,5.8178711-7.3408203,6.019043  c-0.2431641,0.3452148-0.2431641,0.8061523,0,1.1508789c0.0888672,0.1264648,2.0478516,2.8823242,5.0097656,4.8105469  c-1.7880859,4.1337891-0.953125,9.1611328-0.9140625,9.3876953c0.0712891,0.4165039,0.3974609,0.7431641,0.8144531,0.8154297  c0.2285156,0.0390625,5.2978516,0.8867188,9.4335938-0.9458008c1.9238281,3.1210938,4.8349609,5.2021484,4.96875,5.296875  c0.1728516,0.1225586,0.375,0.1835938,0.5771484,0.1835938s0.4042969-0.0610352,0.5771484-0.1835938  c0.2011719-0.1420898,4.3740234-3.1342773,6.0019531-7.3603516C81.7138672,61.5366211,83.2177734,62.609375,83.2949219,62.6640625z   M79.2441406,56.8012695c-0.3740234,0.1020508-0.6552734,0.4101562-0.7216797,0.7915039  c-0.6064453,3.4428711-3.7978516,6.3637695-5.1230469,7.4477539c-0.9960938-0.8134766-3.0439453-2.6625977-4.2597656-4.9951172  c-0.125-0.2402344-0.3427734-0.4194336-0.6025391-0.496582c-0.09375-0.0273438-0.1884766-0.0410156-0.2841797-0.0410156  c-0.1708984,0-0.3408203,0.0439453-0.4921875,0.1293945c-2.8330078,1.6020508-6.6923828,1.4155273-8.2763672,1.2553711  c-0.1630859-1.5717773-0.3466797-5.3808594,1.2099609-8.2265625c0.2636719-0.480957,0.0898438-1.0844727-0.3886719-1.3525391  c-2.2011719-1.2333984-3.9375-3.171875-4.7158203-4.1303711c1.078125-1.3276367,3.9951172-4.534668,7.4316406-5.1411133  c0.3818359-0.0673828,0.6894531-0.3491211,0.7910156-0.7231445s-0.0214844-0.7724609-0.3173828-1.0234375  c-1.5595703-1.3261719-2.7539062-2.7045898-3.3935547-3.5004883c3.0820312-2.7963867,7.0341797-4.3266602,11.2207031-4.3271484  c4.1496582,0,8.0568848,1.5193481,11.1279297,4.2683716l-3.6002197,3.6099854  c-2.5081177-2.0703125-5.8056641-2.9324341-9.0452881-2.2919312c-0.5419922,0.1074219-0.8935547,0.6333008-0.7871094,1.175293  c0.1074219,0.5415039,0.6337891,0.8925781,1.1757812,0.7866211c2.5739136-0.5088501,5.2120361,0.1416626,7.2442627,1.7462158  l-6.2341309,6.2509155c-1.6779175-1.2614136-3.8169556-1.7693481-5.9173584-1.3550415  c-0.5410156,0.1069336-0.8935547,0.6333008-0.7871094,1.1748047c0.1074219,0.5424805,0.6328125,0.8935547,1.1757812,0.7871094  c1.4371338-0.2820435,2.9033203,0.0308228,4.0946655,0.8310547l-4.1669312,4.1782227  c-0.3896484,0.3911133-0.3896484,1.0239258,0.0019531,1.4140625c0.1953125,0.1948242,0.4501953,0.2919922,0.7060547,0.2919922  c0.2568359,0,0.5126953-0.0981445,0.7080078-0.2939453l4.1782227-4.1895142  c0.8473511,1.2112427,1.1843872,2.7215576,0.8920898,4.2046509c-0.1064453,0.5419922,0.2460938,1.0678711,0.7880859,1.1743164  C72.9423828,56.2441406,73.0068359,56.25,73.0712891,56.25c0.4677734,0,0.8867188-0.3300781,0.9804688-0.8066406  c0.4220581-2.1418457-0.1072388-4.3334961-1.420105-6.0301514l6.2230225-6.2398682  c1.6502075,2.0484619,2.3306885,4.7286377,1.81427,7.3520508c-0.1064453,0.5419922,0.2460938,1.0673828,0.7880859,1.1738281  c0.0654297,0.0131836,0.1308594,0.019043,0.1943359,0.019043c0.4677734,0,0.8867188-0.3300781,0.9804688-0.8071289  c0.6447754-3.2792969-0.2450562-6.6279907-2.364624-9.1541138l3.5924683-3.6022339  c5.618103,6.3721924,5.598938,16.0218506-0.0921021,22.3515625c-0.7958984-0.6396484-2.1689453-1.8300781-3.5-3.3896484  C80.015625,56.8227539,79.6162109,56.7011719,79.2441406,56.8012695z"/><path d="M66.1640625,25.847168c0.1953125,0.1953125,0.4511719,0.2929688,0.7070312,0.2929688  s0.5117188-0.0976562,0.7070312-0.2929688l1.8435059-1.8431396c0.7237549,0.1397095,2.0654907,0.3504639,3.6223145,0.3504639  c2.265625,0,4.9560547-0.4501953,6.7363281-2.230957c3.5263672-3.5263672,1.8359375-10.6210938,1.7617188-10.9213867  c-0.0878906-0.3618164-0.3710938-0.644043-0.7324219-0.7329102c-0.2998047-0.0742188-7.3955078-1.7666016-10.921875,1.7617188  c-3.0023804,3.0032349-2.2233276,8.5802612-1.8797607,10.3586426l-1.8438721,1.8435059  C65.7734375,24.8232422,65.7734375,25.456543,66.1640625,25.847168z M71.3017578,13.6450195  c2.2246094-2.2250977,6.7871094-1.6508789,8.4287109-1.3554688c0.390625,2.1010742,0.6826172,6.3735352-1.3642578,8.4199219  c-2.2226562,2.222168-6.7734375,1.6533203-8.4208984,1.3564453C69.6494141,20.4204102,69.0791016,15.8676758,71.3017578,13.6450195z  "/><path d="M73.390625,75.8300781c-3.5283203-3.5273438-10.6230469-1.8364258-10.921875-1.7617188  c-0.3613281,0.0888672-0.6445312,0.3710938-0.7324219,0.7329102c-0.0742188,0.300293-1.7646484,7.3950195,1.7617188,10.9213867  c1.7802734,1.7807617,4.4707031,2.230957,6.7373047,2.230957c1.555481,0,2.8972778-0.2107544,3.6212158-0.3504639  l1.8436279,1.8436279c0.1953125,0.1953125,0.4511719,0.2929688,0.7070312,0.2929688s0.5117188-0.0976562,0.7070312-0.2929688  c0.390625-0.390625,0.390625-1.0234375,0-1.4140625l-1.8438721-1.8438721  C75.6139526,84.4105225,76.3930664,78.833313,73.390625,75.8300781z M64.9121094,84.3085938  c-2.2265625-2.2260742-1.6513672-6.7875977-1.3554688-8.4277344c2.1025391-0.3911133,6.3740234-0.6826172,8.4199219,1.3632812  c2.2226562,2.2226562,1.6523438,6.7753906,1.3564453,8.4208984C71.6855469,85.9624023,67.1357422,86.53125,64.9121094,84.3085938z"/><path d="M44.3818359,32.1352539c1.9033203-3.293457,1.8466797-6.2124023-0.1591797-8.2192383  c-1.1181641-1.1166992-2.6269531-1.7280273-4.1728516-1.7392578c0.3349609-2.215332-0.3847656-4.4975586-2.0107422-6.1235352  c-1.9140625-1.9145508-4.6660156-2.5595703-7.1708984-1.7753906c-0.2763672-0.9550781-0.7900391-1.8305664-1.5029297-2.543457  c-1.125-1.1254883-2.6210938-1.7451172-4.2119141-1.7451172c-1.5800781,0-3.0654297,0.6108398-4.1894531,1.7211914  c-2.6142578-1.5292969-5.9824219-1.1391602-8.1826172,1.0605469c-2.1992188,2.199707-2.5898438,5.5693359-1.0595703,8.1831055  C10.6113281,22.0766602,10,23.5625,10,25.1425781c0,1.5913086,0.6191406,3.0874023,1.7451172,4.2124023  c0.7128906,0.7124023,1.5878906,1.2255859,2.5429688,1.5029297c-0.7851562,2.503418-0.1396484,5.2553711,1.7753906,7.1704102  c1.6269531,1.6259766,3.9091797,2.3457031,6.1230469,2.0107422c0.0117188,1.5463867,0.6230469,3.0551758,1.7412109,4.1723633  c1.03125,1.03125,2.3027344,1.5473633,3.7421875,1.5473633c1.3623047,0,2.875-0.4624023,4.4765625-1.3886719  c4.9746094-2.8781128,10.9157104,0.4168091,11.6948242,0.874939l3.0766602,3.0767212  c0.1953125,0.1953125,0.4511719,0.2929688,0.7070312,0.2929688s0.5117188-0.0976562,0.7070312-0.2929688  c0.390625-0.390625,0.390625-1.0234375,0-1.4140625l-3.0784302-3.0784302  C44.7926025,43.0499878,41.4904785,37.1310425,44.3818359,32.1352539z M31.1445312,42.6386719  c-1.7246094,0.9970703-4.1298828,1.8325195-5.8027344,0.1582031c-0.9990234-0.9985352-1.3886719-2.4697266-1.0166016-3.8393555  c0.0996094-0.3647461-0.015625-0.7539062-0.296875-1.0063477s-0.6816406-0.3251953-1.0322266-0.1870117  c-1.9101562,0.7460938-4.0732422,0.2949219-5.5185547-1.1499023c-1.6123047-1.6118164-1.9746094-4.0458984-0.9033203-6.0566406  c0.1601562-0.3012695,0.15625-0.6640625-0.0117188-0.9619141c-0.1679688-0.2973633-0.4765625-0.4887695-0.8173828-0.5068359  c-0.9794922-0.0522461-1.8974609-0.4599609-2.5859375-1.1479492C12.4111328,27.1933594,12,26.199707,12,25.1425781  s0.4111328-2.0507812,1.1601562-2.7993164c0.1503906-0.1508789,0.3134766-0.28125,0.4804688-0.4023438  c0.2207031-0.1606445,0.3662109-0.4042969,0.4033203-0.6743164c0.0361328-0.2705078-0.0390625-0.5439453-0.2089844-0.7573242  c-1.5068359-1.8930664-1.3515625-4.6118164,0.3603516-6.3242188c1.7128906-1.7114258,4.4326172-1.8671875,6.3242188-0.3603516  c0.2148438,0.1704102,0.4902344,0.2475586,0.7587891,0.2084961c0.2705078-0.0371094,0.5146484-0.1835938,0.6748047-0.4047852  c0.1210938-0.1674805,0.2519531-0.3300781,0.4013672-0.4799805c1.4941406-1.4951172,4.1015625-1.4960938,5.5966797,0  c0.6884766,0.6884766,1.0957031,1.6069336,1.1474609,2.5854492c0.0185547,0.3413086,0.2099609,0.6499023,0.5068359,0.8178711  c0.2978516,0.1674805,0.6601562,0.1728516,0.9619141,0.0117188c2.0117188-1.0712891,4.4453125-0.7080078,6.0576172,0.9038086  c1.4453125,1.4453125,1.8964844,3.6113281,1.1494141,5.5175781c-0.1376953,0.3520508-0.0654297,0.7514648,0.1875,1.0327148  c0.2519531,0.2807617,0.6425781,0.3984375,1.0058594,0.296875c1.3710938-0.3701172,2.8417969,0.0175781,3.8408203,1.0161133  c1.6738281,1.6743164,0.8378906,4.0800781-0.1582031,5.8032227c-1.8196411,3.1442871-1.6513062,6.4835815-0.9938965,9.0982666  l-4.5166016-4.5166626c-0.2990112-2.6782227,0.8457031-4.3845215,0.9030762-4.4663696  c0.3193359-0.4477539,0.2167969-1.0693359-0.2285156-1.3916016c-0.4501953-0.3242188-1.0732422-0.222168-1.3964844,0.2250977  c-0.0543213,0.0753174-1.0081177,1.4334717-1.2717285,3.6391602l-4.2565308-4.2565918  c-0.4028931-3.6029663,1.7056274-6.4381104,1.727478-6.467041c0.3349609-0.4375,0.2529297-1.0634766-0.1845703-1.3999023  c-0.4375-0.3383789-1.0654297-0.2553711-1.4023438,0.1826172c-0.0906982,0.1184082-1.8146362,2.4074707-2.1436768,5.6812134  l-4.5644531-4.5645752c-0.3536377-3.0650635,1.0071411-5.0576172,1.0714111-5.1473999  c0.3212891-0.4458008,0.2226562-1.0688477-0.2226562-1.3925781c-0.4462891-0.3251953-1.0712891-0.2270508-1.3974609,0.2192383  c-0.0628662,0.0872192-1.2133179,1.708374-1.4708252,4.3012085l-2.1893311-2.1893921  c-0.390625-0.390625-1.0234375-0.390625-1.4140625,0s-0.390625,1.0234375,0,1.4140625l2.1942139,2.1942749  c-2.598999,0.2550659-4.2236938,1.4070435-4.3114014,1.4707642c-0.4443359,0.3242188-0.5419922,0.9448242-0.2207031,1.3911133  c0.1953125,0.2709961,0.5019531,0.4150391,0.8125,0.4150391c0.2011719,0,0.4052734-0.0605469,0.5810547-0.1860352  c0.0861206-0.0605469,2.0888062-1.4261475,5.1592407-1.0701904l4.5610352,4.5610962  c-3.2788086,0.3255615-5.5698853,2.0543823-5.6880493,2.1463013c-0.4384766,0.3369141-0.5195312,0.9643555-0.1835938,1.4023438  c0.1972656,0.2558594,0.4941406,0.3901367,0.7939453,0.3901367c0.2128906,0,0.4267578-0.0673828,0.6083984-0.2075195  c0.0285034-0.0218506,2.8441772-2.1337891,6.4753418-1.7251587l4.2539673,4.2540283  c-2.2127686,0.2614136-3.5718384,1.2194824-3.6472778,1.2738647c-0.4472656,0.3237305-0.5478516,0.9487305-0.2246094,1.3964844  c0.1953125,0.2705078,0.5009766,0.4140625,0.8115234,0.4140625c0.203125,0,0.4072266-0.0615234,0.5849609-0.1894531  c0.0178833-0.0126953,1.7826538-1.2006836,4.4720459-0.8982544l4.5112305,4.5112915  C37.6279297,40.9890747,34.288208,40.8201904,31.1445312,42.6386719z"/></svg>