<svg xmlns="http://www.w3.org/2000/svg" data-name="Layer 1" viewBox="0 0 64 80" x="0px" y="0px"><path d="M2.684,42.949l1.071.357A45.708,45.708,0,0,1,17.9,51l8.475,6.78a.942.942,0,0,0,.184.1l-.006.013L30,59.618V62h2V47.5l3.6-2.7-.011-.014a1.011,1.011,0,0,0,.118-.079,40.412,40.412,0,0,1,23.45-11.469l1.967-.246a1,1,0,0,0,.206-1.936l-8.319-2.911A13,13,0,0,0,36.32,36.5l-2.177,6.893L32,45V30.605a5.724,5.724,0,0,1,2.555-4.773l-.011-.016a.986.986,0,0,0,.163-.109,19.811,19.811,0,0,0,5.762-15.238L40,2.938a1,1,0,0,0-.858-.928,1.009,1.009,0,0,0-1.081.654l-3.234,9.052A31.254,31.254,0,0,0,33,22.253v2.253a7.71,7.71,0,0,0-3,6.1v1.981l-1.017-1.017a17.619,17.619,0,0,0-12.05-16.313l-6.617-2.2a1,1,0,0,0-1.293,1.166l1.1,4.962A17.547,17.547,0,0,0,27.355,33h.231L30,35.414V57.382l-2-1V54.325A15.65,15.65,0,0,0,7.4,39.479L2.684,41.051a1,1,0,0,0,0,1.9ZM38.227,37.1a11.024,11.024,0,0,1,10.478-7.695,11.04,11.04,0,0,1,3.646.625l4.417,1.546a42.507,42.507,0,0,0-19.694,9.175ZM35,22.253a29.272,29.272,0,0,1,1.708-9.864l1.6-4.472.167,2.677A17.816,17.816,0,0,1,35,22.314ZM12.079,18.746l-.72-3.239L16.3,17.154a15.619,15.619,0,0,1,10.465,12.2l-8.058-8.058-1.414,1.414,8.177,8.177A15.54,15.54,0,0,1,12.079,18.746ZM8.035,41.376A13.648,13.648,0,0,1,26,54.325v.594L19.15,49.44A47.657,47.657,0,0,0,6.107,42.019Z"/></svg>