<svg xmlns="http://www.w3.org/2000/svg" xmlns:xlink="http://www.w3.org/1999/xlink" version="1.1" x="0px" y="0px" viewBox="0 0 22.435 28.0425" style="enable-background:new 0 0 22.435 22.434;" xml:space="preserve"><g><g><path d="M21.409,1.025c-1.365-1.366-3.582-1.367-4.949,0L6.002,11.482c-1.57-0.143-3.19,0.361-4.392,1.563    c-2.148,2.149-2.148,5.631-0.001,7.778c2.148,2.147,5.631,2.147,7.779-0.001c1.201-1.2,1.705-2.819,1.563-4.389L21.411,5.975    C22.777,4.61,22.776,2.392,21.409,1.025z M9.911,16.061c0.279,1.422-0.129,2.955-1.229,4.055    c-1.755,1.757-4.609,1.757-6.365,0.001c-1.754-1.755-1.754-4.609,0.001-6.364c1.101-1.101,2.634-1.51,4.058-1.23L17.166,1.732    c0.975-0.975,2.561-0.976,3.535,0c0.976,0.975,0.976,2.561,0.002,3.536L9.911,16.061z"/><path d="M12.83,7.481l-6.164,6.166c-1.232-0.435-2.658-0.171-3.642,0.813c-1.364,1.364-1.365,3.586-0.001,4.95    c1.365,1.364,3.586,1.364,4.951-0.001c0.984-0.981,1.245-2.408,0.813-3.64l6.167-6.166c0.583-0.585,0.583-1.536-0.002-2.122    C14.368,6.896,13.416,6.896,12.83,7.481z"/></g></g></svg>