<svg xmlns="http://www.w3.org/2000/svg" xmlns:xlink="http://www.w3.org/1999/xlink" version="1.1" x="0px" y="0px" viewBox="0 0 93.833 78.81" style="enable-background:new 0 0 93.833 63.048;" xml:space="preserve"><path d="M91.871,27.106c-2.506-4.751-5.714-7.579-9.534-8.404c-4.348-0.939-8.171,1.022-9.767,2.024  c-4.064-2.924-8.643-5.027-13.519-6.183c0.718-1.396,1.091-2.937,1.091-4.54C60.143,4.488,55.655,0,50.141,0  c-5.517,0-10.004,4.488-10.004,10.004c0,1.602,0.374,3.142,1.092,4.54c-6.615,1.567-12.691,4.869-17.666,9.616  c-1.299,1.24-2.491,2.559-3.589,3.935L9.929,18.007c-0.44-0.442-1.139-0.492-1.636-0.118L0.5,23.739  c-0.281,0.211-0.46,0.529-0.494,0.878c-0.034,0.349,0.08,0.696,0.315,0.958l13.156,14.617c-1.206,3.759-1.836,7.727-1.836,11.804  c0,3.42,0.456,6.828,1.356,10.132c0.148,0.544,0.643,0.921,1.206,0.921h71.875c0.564,0,1.059-0.378,1.206-0.922  c0.9-3.31,1.356-6.719,1.356-10.131c0-3.234-0.398-6.398-1.162-9.445c1.585-0.643,4.302-2.122,5.616-5.057  C94.391,34.597,93.979,31.102,91.871,27.106z M43.482,16.621c0.43-0.08,0.786-0.378,0.94-0.787c0.153-0.409,0.083-0.868-0.185-1.212  c-1.047-1.336-1.6-2.933-1.6-4.618c0-4.138,3.366-7.504,7.504-7.504c4.137,0,7.502,3.366,7.502,7.504  c0,1.688-0.553,3.284-1.599,4.617c-0.27,0.344-0.341,0.803-0.187,1.212c0.154,0.409,0.511,0.708,0.94,0.788  c5.762,1.078,11.139,3.545,15.723,7.193H27.759C32.343,20.166,37.72,17.699,43.482,16.621z M3.093,24.917l5.831-4.376l9.532,9.573  c-1.619,2.327-2.954,4.816-4.009,7.419L3.093,24.917z M85.109,60.548H15.171c-0.684-2.8-1.03-5.672-1.03-8.553  c0-9.756,3.828-18.855,10.791-25.681h50.416c4.519,4.429,7.709,9.82,9.398,15.724c0.001,0.006-0.001,0.011,0.001,0.017  c0.002,0.009,0.009,0.016,0.011,0.025c0.906,3.18,1.383,6.506,1.383,9.915C86.141,54.871,85.794,57.743,85.109,60.548z   M90.819,36.457c-0.895,2.016-2.808,3.134-4.037,3.672c-1.936-6-5.347-11.465-10.066-15.968c-0.648-0.619-1.317-1.21-2.002-1.779  c1.562-0.826,4.244-1.859,7.114-1.23c3.056,0.668,5.69,3.064,7.831,7.122C91.387,31.545,91.776,34.299,90.819,36.457z"/></svg>