<svg xmlns="http://www.w3.org/2000/svg" xmlns:xlink="http://www.w3.org/1999/xlink" version="1.1" x="0px" y="0px" viewBox="0 0 50 62.5" enable-background="new 0 0 50 50" xml:space="preserve"><g><path d="M43.3,33.9L35.1,25l-5.6-3.2l-6.2-10.9l-7.4,12.9l-0.8-2.1L8,33.2l-1.4-1L1,39.2h21.2l2.8-3.4l-1.8-4.2l3.2-4.5L25,31.6   l2,3.6l-1.5,4H49l-4.6-7.4L43.3,33.9z M16.9,36.2l-1-2.1l-0.8,2.6l-1.4-2.3l-3.3,3l-6.7,0.8l2.5-3.5l2.3,1l6-10.8l1.3,1.1V29   l1.6,2.8l0.3,1.6L16.9,36.2z M23.1,25l-1.3,6.5L20.6,30l-0.4,2.8l-1.4-2.5l-1.1-4.9l6-11.8L25,23.7L23.1,25z M36,33.2l-0.8,1.1V37   l-2.5-3.9v-3.6l-1.4,2.2v3.7l-2.8-8.3l1.5-3.6l5.4,4.2l2.8,3.2L36,33.2z M38.3,37.5l1.2-4.3l2.4,2.6l1.8-1.3l3.2,4.1L38.3,37.5z"/></g></svg>