<svg xmlns="http://www.w3.org/2000/svg" xmlns:xlink="http://www.w3.org/1999/xlink" version="1.1" x="0px" y="0px" viewBox="0 0 450 450" style="enable-background:new 0 0 450 450;" xml:space="preserve"><g><g><path d="M162.3,287.58h-58.06c-4.14,0-7.5-3.36-7.5-7.5v-87.63c0-4.14,3.36-7.5,7.5-7.5h58.06c4.14,0,7.5,3.36,7.5,7.5    s-3.36,7.5-7.5,7.5h-50.56v72.63h50.56c4.14,0,7.5,3.36,7.5,7.5S166.44,287.58,162.3,287.58z"/></g><g><path d="M268.55,356.05c-1.42,0-2.83-0.4-4.06-1.2l-106.25-68.46c-3.48-2.24-4.49-6.88-2.24-10.37c2.24-3.48,6.88-4.48,10.37-2.24    l94.69,61.01V134.82l-94.56,63.85c-3.43,2.32-8.1,1.41-10.41-2.02c-2.32-3.43-1.41-8.09,2.02-10.41l106.25-71.75    c2.3-1.55,5.27-1.71,7.72-0.41c2.45,1.3,3.98,3.85,3.98,6.62v227.84c0,2.75-1.5,5.27-3.91,6.58    C271.02,355.74,269.78,356.05,268.55,356.05z"/></g><g><path d="M317.3,287.58c-2.13,0-4.25-0.9-5.73-2.66c-2.67-3.16-2.28-7.9,0.89-10.57c16.85-14.23,25.45-29.72,25.58-46.03    c0.21-28.72-25.4-51.35-25.66-51.58c-3.12-2.72-3.45-7.46-0.73-10.58c2.72-3.13,7.46-3.45,10.58-0.73    c1.27,1.1,31.07,27.47,30.81,63c-0.16,20.88-10.55,40.18-30.89,57.37C320.73,287,319.01,287.58,317.3,287.58z"/></g><g><path d="M372.08,319.74c-2.13,0-4.25-0.9-5.73-2.66c-2.67-3.16-2.28-7.9,0.89-10.57c27.82-23.5,42.03-49.25,42.24-76.53    c0.36-47.67-41.89-85.01-42.32-85.39c-3.12-2.72-3.45-7.46-0.73-10.58c2.72-3.13,7.46-3.45,10.58-0.73    c1.96,1.7,47.88,42.32,47.47,96.81c-0.24,31.85-16.24,61.42-47.56,87.88C375.51,319.16,373.79,319.74,372.08,319.74z"/></g></g></svg>