<svg xmlns="http://www.w3.org/2000/svg" xmlns:xlink="http://www.w3.org/1999/xlink" version="1.1" x="0px" y="0px" viewBox="0 0 48 60" enable-background="new 0 0 48 48" xml:space="preserve"><g><path  d="M46,18.3c-1.3-1.4-3.1-2.1-5-2.1c-1.5,0-3,0.4-4.2,1.3c-0.2-0.3-0.4-0.6-0.6-0.9c-2.3-3.5-5.6-5.8-9.1-6.6l0.6-1.3   c0.3-0.7,0.2-1.5-0.2-2.2C26.8,5.5,25.7,5,24.4,5s-2.5,0.6-3.1,1.4c-0.4,0.7-0.5,1.5-0.2,2.2l0.6,1.3c-3.6,0.8-6.8,3.1-9.1,6.6   c-1.5,2.3-2.6,5-3.1,7.9c-0.7-0.6-1.2-1.4-1.4-2.2c-0.5-1.8-1.5-3.3-2.8-4.2c-1.4-1-2.8-1.5-4.1-1.6c-0.3,0-0.5,0.1-0.7,0.3   C0.1,16.9,0,17.1,0,17.4v4.9c0,0.3,0.1,0.6,0.4,0.8c1.7,1.3,2.7,3.2,2.7,5.3c0,4.3,3.3,8,7.6,8.6c0.9,2.2,2.1,4.1,3.6,5.8   c0.2,0.2,0.5,0.3,0.7,0.3h18.8c0.3,0,0.5-0.1,0.7-0.3c1.9-2,3.3-4.6,4.2-7.4l7.2-7c1.4-1.3,2.1-3.1,2.1-5   C48,21.4,47.3,19.6,46,18.3z M5.1,28.4c0-2.6-1.1-4.9-3.1-6.6v-3.2c0.6,0.2,1.3,0.5,2,1c1.2,0.9,1.8,2.2,2.1,3.2   c0.5,1.7,1.6,3.1,3,4c0,0,0,0,0,0.1c-0.4,0.6,0.3,7.6,0.7,7.7c0.1,0,0,0.1,0,0.2C7.1,33.9,5.1,31.3,5.1,28.4z M23,7.5   C23.1,7.2,23.7,7,24.4,7c0.7,0,1.2,0.3,1.4,0.6c0.1,0.1,0.1,0.2,0,0.3l-0.8,1.8h-1.4l-0.8-1.8C22.9,7.8,22.9,7.7,23,7.5z    M24.4,11.6c3.4,0,6.6,1.6,9,4.4H15.3C17.8,13.2,21,11.6,24.4,11.6z M33.3,41H15.4c-1.3-1.5-2.4-3.3-3.1-5.3c0,0,0,0,0-0.1   c0-0.1-0.1-0.2-0.1-0.3c-0.1-0.3-3.4-9.5,1.7-17.3h21c1.9,3,2.9,6.7,2.9,10.4C37.7,33.3,36.1,37.8,33.3,41z M44.5,26.9l-5,4.8   c0.1-1,0.2-2.1,0.2-3.2c0-3.3-0.7-6.5-2-9.3c0.9-0.7,2-1.1,3.2-1.1c1.4,0,2.6,0.6,3.6,1.5c0.9,1,1.5,2.3,1.4,3.6   C46,24.7,45.4,25.9,44.5,26.9z"/></g></svg>