<svg xmlns="http://www.w3.org/2000/svg" viewBox="0 0 100 100" x="0px" y="0px"><title>Artboard 17</title><path d="M89,74H78.57a6.3,6.3,0,0,0,1.71-4l.72-13A1,1,0,0,0,80,56H65.5a1,1,0,0,0-1,1.06l.72,13h0a6.3,6.3,0,0,0,1.71,4H54V69.51c4.43-2.59,7.25-6.39,7.25-10.64a11,11,0,0,0-3.31-7.57A1,1,0,0,0,58,51V39.5a17.5,17.5,0,0,0-35,0V50.74c-.37.35-.71.71-1,1.08l-5.81-1a1,1,0,0,0-.67.12l-2,1.17a1,1,0,0,0-.07,1.69l5.77,4a9.53,9.53,0,0,0-.08,1c0,4.12,2.66,7.82,6.88,10.41V74H11a1,1,0,0,0-1,1v8a1,1,0,0,0,1,1h5v5a1,1,0,0,0,1,1h6a1,1,0,0,0,1-1V84H76v5a1,1,0,0,0,1,1h6a1,1,0,0,0,1-1V84h5a1,1,0,0,0,1-1V75A1,1,0,0,0,89,74ZM78.94,58l-.06,1H66.61l-.06-1ZM67.22,69.91h0L66.72,61H78.78l-.5,8.91A4.33,4.33,0,0,1,74,74H71.54A4.33,4.33,0,0,1,67.22,69.91ZM52,74h-.32l-1.14-2.84c.5-.19,1-.38,1.46-.6ZM40.19,73a29.92,29.92,0,0,0,8.46-1.2l.88,2.2h-19l.93-2.3A29.78,29.78,0,0,0,40.19,73Zm.31-29.25a.91.91,0,1,1,.91-.91A.91.91,0,0,1,40.5,43.75Zm-.31,3a26.92,26.92,0,0,1,11,2.25h-22A26.92,26.92,0,0,1,40.19,46.75ZM25,39.5a15.5,15.5,0,0,1,31,0V49.57l-.2-.15a1,1,0,0,0-.49-.36,26,26,0,0,0-12.71-4.21,2.91,2.91,0,1,0-4.22,0A26.14,26.14,0,0,0,25,49.11ZM15.86,53.07l.33-.19,4.46.74a11,11,0,0,0-1,2.1ZM21,58.87c0-.45,0-.88,0-1.32h0A13.89,13.89,0,0,1,25.66,51L26,51H54.65c2.86,2.12,4.6,4.87,4.6,7.87C59.25,65.56,50.64,71,40.13,71S21,65.56,21,58.87Zm7,11.5c.49.23,1,.45,1.52.66l-1.2,3H28ZM22,88H18V84h4Zm60,0H78V84h4Zm6-6H12V76H88Z"/></svg>