<svg xmlns="http://www.w3.org/2000/svg" xmlns:xlink="http://www.w3.org/1999/xlink" version="1.1" x="0px" y="0px" viewBox="0 0 100 125" style="enable-background:new 0 0 100 100;" xml:space="preserve"><path d="M10.9902344,88c-0.5522461,0-1,0.4477539-1,1s0.4477539,1,1,1h78c0.5522461,0,1-0.4477539,1-1s-0.4477539-1-1-1H72.230957  v-3.9692383c9.8920898-0.5239258,17.7788086-8.7368164,17.7788086-18.7568359c0-0.4985352-0.3671875-0.9208984-0.8608398-0.9902344  c-3.9430542-0.5548096-7.333313-0.1820679-10.1526489,1.067688c-0.111145-2.9855347-1.1282959-9.1585083-7.1574097-13.8303833  c-0.3603516-0.2792969-0.8642578-0.2792969-1.2246094,0c-6.0293579,4.671814-7.0466309,10.8447266-7.1578369,13.8302612  c-2.8186646-1.2492065-6.2084351-1.6220093-10.15271-1.0675659c-0.4936523,0.0693359-0.8608398,0.4916992-0.8608398,0.9902344  c0,10.0234375,7.8916016,18.2382812,17.7880859,18.7573242V88H29.777832v-3.9692383  c9.8920898-0.5239258,17.7792969-8.7368164,17.7792969-18.7568359c0-0.4985352-0.3671875-0.9208984-0.8608398-0.9902344  c-3.9419556-0.5548096-7.3328247-0.1818237-10.1526489,1.0678711c-0.111145-2.9854736-1.1283569-9.1586304-7.1578979-13.8305664  c-0.3603516-0.2792969-0.8642578-0.2792969-1.2246094,0c-6.0290527,4.671875-7.0462036,10.8448486-7.1573486,13.8303833  c-2.8185425-1.2495117-6.2078247-1.6224976-10.15271-1.067688c-0.4936523,0.0693359-0.8608398,0.4916992-0.8608398,0.9902344  c0,10.0234375,7.8911133,18.2382812,17.7875977,18.7573242V88H10.9902344z M87.9868164,66.1552734  c-0.4423828,8.5136719-7.2583008,15.3681641-15.7558594,15.8720703v-1.7407227c0-0.0253906-0.0004883-0.09375-0.003418-0.2016602  c0.046875-1.1967773,0.496582-7.4311523,4.7880859-11.1616211C79.6894531,66.5991211,83.3759766,65.6699219,87.9868164,66.1552734z   M71.2270508,53.5986328c5.6655884,4.8016968,5.8448486,11.0725098,5.7738037,12.8233032  c-0.451416,0.3022461-0.8840332,0.6328735-1.2972412,0.9921265c-2.3676758,2.0581055-3.7128906,4.7119141-4.4770508,7.0756836  c-0.7641602-2.3637695-2.109375-5.0175781-4.4770508-7.0756836c-0.4119263-0.3581543-0.8430176-0.6879272-1.2929077-0.9894409  C65.3986206,64.7036743,65.6002197,58.375,71.2270508,53.5986328z M54.4658203,66.1552734  c4.6044922-0.4858398,8.2880859,0.4414062,10.9614258,2.7592773c4.2929688,3.7226562,4.75,9.9951172,4.7983398,11.1772461  c-0.0029297,0.1040039-0.003418,0.1699219-0.003418,0.1948242c0,0.0449219,0.0029297,0.0893555,0.0087891,0.1333008v1.6079102  C61.7294922,81.527832,54.9082031,74.671875,54.4658203,66.1552734z M45.5341797,66.1552734  c-0.4423828,8.5136719-7.2587891,15.3681641-15.7563477,15.8720703v-1.7407227c0-0.0253906-0.0004883-0.09375-0.003418-0.2016602  c0.046875-1.1967773,0.496582-7.4311523,4.7880859-11.1616211C37.2363281,66.5996094,40.9233398,65.6713867,45.5341797,66.1552734z   M28.7739258,53.5986328c5.6659546,4.8016357,5.8453369,11.0723267,5.774292,12.8231812  c-0.4515991,0.3023071-0.8843994,0.6329346-1.2977295,0.9922485c-2.3676758,2.0581055-3.7128906,4.7119141-4.4770508,7.0756836  c-0.7641602-2.3637695-2.109375-5.0175781-4.4770508-7.0756836c-0.4118042-0.3579712-0.8427124-0.687561-1.2924194-0.9889526  C22.9459229,64.7047729,23.1470337,58.3753662,28.7739258,53.5986328z M12.0131836,66.1552734  c4.6049805-0.4863281,8.2875977,0.4418945,10.9609375,2.7587891c4.2929688,3.7226562,4.75,9.9956055,4.7983398,11.1777344  c-0.0029297,0.1040039-0.003418,0.1699219-0.003418,0.1948242c0,0.0449219,0.0029297,0.0893555,0.0087891,0.1333008v1.6079102  C19.2763672,81.527832,12.4555664,74.671875,12.0131836,66.1552734z"/><path d="M61.4365234,32.9667969c0-6.3061523-5.1303711-11.4365234-11.4365234-11.4365234  s-11.4365234,5.1303711-11.4365234,11.4365234S43.6938477,44.4033203,50,44.4033203S61.4365234,39.2729492,61.4365234,32.9667969z   M50,42.4033203c-5.203125,0-9.4365234-4.2333984-9.4365234-9.4365234S44.796875,23.5302734,50,23.5302734  s9.4365234,4.2333984,9.4365234,9.4365234S55.203125,42.4033203,50,42.4033203z"/><path d="M51,17.3178711V11c0-0.5522461-0.4477539-1-1-1s-1,0.4477539-1,1v6.3178711c0,0.5522461,0.4477539,1,1,1  S51,17.8701172,51,17.3178711z"/><path d="M38.9345703,22.9013672c0.2558594,0,0.5117188-0.0976562,0.7070312-0.2929688  c0.390625-0.390625,0.390625-1.0234375,0-1.4140625l-4.4672852-4.4672852c-0.390625-0.390625-1.0234375-0.390625-1.4140625,0  s-0.390625,1.0234375,0,1.4140625l4.4672852,4.4672852C38.4228516,22.8037109,38.6787109,22.9013672,38.9345703,22.9013672z"/><path d="M27.0332031,32.9667969c0,0.5522461,0.4477539,1,1,1h6.3178711c0.5522461,0,1-0.4477539,1-1s-0.4477539-1-1-1h-6.3178711  C27.480957,31.9667969,27.0332031,32.4145508,27.0332031,32.9667969z"/><path d="M34.4672852,49.4995117c0.2558594,0,0.5117188-0.0976562,0.7070312-0.2929688l4.4672852-4.4672852  c0.390625-0.390625,0.390625-1.0234375,0-1.4140625s-1.0234375-0.390625-1.4140625,0l-4.4672852,4.4672852  c-0.390625,0.390625-0.390625,1.0234375,0,1.4140625C33.9555664,49.4018555,34.2114258,49.4995117,34.4672852,49.4995117z"/><path d="M49,48.6157227v6.3178711c0,0.5522461,0.4477539,1,1,1s1-0.4477539,1-1v-6.3178711c0-0.5522461-0.4477539-1-1-1  S49,48.0634766,49,48.6157227z"/><path d="M64.8256836,49.206543c0.1953125,0.1953125,0.4511719,0.2929688,0.7070312,0.2929688  s0.5117188-0.0976562,0.7070312-0.2929688c0.390625-0.390625,0.390625-1.0234375,0-1.4140625l-4.4672852-4.4672852  c-0.390625-0.390625-1.0234375-0.390625-1.4140625,0s-0.390625,1.0234375,0,1.4140625L64.8256836,49.206543z"/><path d="M72.9667969,32.9667969c0-0.5522461-0.4477539-1-1-1h-6.3178711c-0.5522461,0-1,0.4477539-1,1s0.4477539,1,1,1h6.3178711  C72.519043,33.9667969,72.9667969,33.519043,72.9667969,32.9667969z"/><path d="M61.7724609,22.6083984l4.4672852-4.4672852c0.390625-0.390625,0.390625-1.0234375,0-1.4140625  s-1.0234375-0.390625-1.4140625,0l-4.4672852,4.4672852c-0.390625,0.390625-0.390625,1.0234375,0,1.4140625  c0.1953125,0.1953125,0.4511719,0.2929688,0.7070312,0.2929688S61.5771484,22.8037109,61.7724609,22.6083984z"/></svg>