<svg xmlns="http://www.w3.org/2000/svg" xmlns:xlink="http://www.w3.org/1999/xlink" version="1.1" x="0px" y="0px" viewBox="0 0 512 512" enable-background="new 0 0 512 512" xml:space="preserve"><g><path d="M330.8,199.9c0-36.3-14.6-68.9-38.4-92.7c-23.8-23.8-56.4-38.4-92.7-38.4c-36.2,0-68.9,14.6-92.7,38.4   s-38.4,56.4-38.4,92.7c0,72.3,58.8,131.2,131.2,131.2c36.3,0,69-14.6,92.7-38.4C316.2,268.8,330.8,236,330.8,199.9z M199.7,293.6   c-51.7,0-93.7-42.2-93.7-93.7c0-51.7,42-93.7,93.7-93.7s93.7,42,93.7,93.7C293.3,251.4,251.4,293.6,199.7,293.6z"/><polygon points="218.4,143.6 180.9,143.6 180.9,181.1 143.5,181.1 143.5,218.6 180.9,218.6 180.9,256 218.4,256 218.4,218.6    255.9,218.6 255.9,181.1 218.4,181.1  "/><path d="M432.5,379.2l-90.1-90.1c-6.4,10.7-14.4,20.8-23.6,30c-8.8,9-18.7,16.9-29.2,23.2l89.9,89.9c7.3,7.3,16.9,11.1,26.4,11.1   c9.6,0,19.3-3.7,26.6-11.1C447.2,417.6,447.2,393.8,432.5,379.2z"/></g></svg>