<svg xmlns="http://www.w3.org/2000/svg" xmlns:xlink="http://www.w3.org/1999/xlink" version="1.1" x="0px" y="0px" viewBox="0 0 100 100" style="enable-background:new 0 0 100 100;" xml:space="preserve"><path  d="M77.5976562,31.5722656c0.2734375,0,0.534668-0.1118164,0.7231445-0.3095703  c0.1889648-0.1977539,0.2885742-0.4638672,0.2758789-0.7368164l-0.4472656-9.5932617  c-0.0249023-0.5336914-0.4648438-0.9536133-0.9990234-0.9536133h-2.2773438l-1.8466797-9.1762695  C72.9321289,10.3359375,72.5219727,10,72.0458984,10H27.9541016c-0.4760742,0-0.8862305,0.3359375-0.9804688,0.8027344  l-1.8466797,9.1762695h-2.2773438c-0.5341797,0-0.9741211,0.4199219-0.9990234,0.9536133l-0.4472656,9.5932617  c-0.0126953,0.2729492,0.0869141,0.5390625,0.2758789,0.7368164c0.1884766,0.1977539,0.449707,0.3095703,0.7231445,0.3095703  h3.4476318l1.8453369,51.1279297c0.0195312,0.5375977,0.4614258,0.9638672,0.9995117,0.9638672h0.7456665l0.5419312,5.4350586  C30.0336914,89.6103516,30.4638672,90,30.9775391,90h38.0449219c0.5136719,0,0.9438477-0.3896484,0.9951172-0.9008789  l0.5419312-5.4350586h0.7456665c0.5380859,0,0.9799805-0.4262695,0.9995117-0.9638672l1.8453369-51.1279297H77.5976562z   M28.7729492,12h42.4541016l1.6056519,7.9790039H27.1672974L28.7729492,12z M23.8041992,21.9790039h52.3916016l0.3540039,7.5932617  H23.4501953L23.8041992,21.9790039z M68.1171875,88h-36.234375l-0.432373-4.3359375h37.0991211L68.1171875,88z   M70.3408203,81.6640625H29.6591797l-1.8075562-50.0917969h44.2967529L70.3408203,81.6640625z"/><path d="M50.9916992,69.7202148c2.5976562,0,4.5654297-0.3486328,4.7519531-0.3828125  c0.0426636-0.0078735,0.0806885-0.0266724,0.1210938-0.0402832c0.0257568-0.008606,0.0508423-0.0142822,0.0759277-0.0252686  c0.0971069-0.0426025,0.1849976-0.0996704,0.2607422-0.1721802c0.0040283-0.0038452,0.0094604-0.0048828,0.0134277-0.0088501  c0.0102539-0.0101929,0.0134277-0.0239868,0.0230713-0.0344849c0.0601807-0.0654297,0.1090698-0.1392822,0.1480103-0.2208862  c0.0125122-0.0262451,0.0252686-0.0507812,0.0350342-0.0778809c0.0067139-0.0184326,0.0183105-0.0339966,0.0238647-0.0529785  c0.0787964-0.2697754,1.2849121-4.5626831,0.5429688-9.0427246c2.1678467-0.5477295,3.8947144-1.5083618,5.0966797-2.8996582  c3.1713867-3.6708984,2.3842773-12.5273438,2.3491211-12.9023438C64.387207,43.3652344,63.9506836,43,63.4555664,43.046875  c-0.3886719,0.0356445-9.5527344,0.9121094-12.7114258,4.5678711c-0.6591187,0.7630615-1.1539917,1.692627-1.4921265,2.7570801  c-5.4198608-2.0218506-12.4755249-2.2163086-12.8692017-2.2258301c-0.5102539-0.0117188-0.9082031,0.3808594-0.9208984,0.8769531  c-0.0126953,0.5068359-0.2631836,12.4584961,4.2832031,17.0493164  C42.7133789,69.0693359,47.440918,69.7202148,50.9916992,69.7202148z M41.0244141,64.8056641  c-2.9244995-2.9526978-3.5861206-9.913269-3.7290649-13.5058594L53.65271,67.7860718  C50.6000366,68.0634155,44.34021,68.1538696,41.0244141,64.8056641z M52.5532227,54.3432617  c3.5404053,3.5745239,3.0087891,9.5066528,2.5057373,12.3051758L38.6239014,50.0838623  C42.3470459,50.3928223,49.6047974,51.3662109,52.5532227,54.3432617z M60.722168,55.5854492  c-0.946228,1.0957031-2.3461304,1.8640747-4.1240845,2.3218384c-0.3685913-1.258606-0.9290161-2.4891968-1.7433472-3.6122437  l7.8868408-8.2010498C62.7842407,49.083252,62.4545898,53.5804443,60.722168,55.5854492z M52.1064453,48.7915039  c1.6742554-1.9376831,5.9465332-3.0652466,9.0075073-3.6026611l-7.4418945,7.7383423  c-0.7511597-0.7153931-1.6950684-1.3242188-2.755188-1.8419189C51.1813965,50.1821289,51.574646,49.4066162,52.1064453,48.7915039z"/></svg>